<?xml version="1.0" standalone="no"?>
<!DOCTYPE svg PUBLIC "-//W3C//DTD SVG 20010904//EN"
 "http://www.w3.org/TR/2001/REC-SVG-20010904/DTD/svg10.dtd">
<svg version="1.0" xmlns="http://www.w3.org/2000/svg"
 width="280.000000pt" height="280.000000pt" viewBox="0 0 280.000000 280.000000"
 preserveAspectRatio="xMidYMid meet">
<metadata>
Created by potrace 1.11, written by Peter Selinger 2001-2013
</metadata>
<g transform="translate(0.000000,280.000000) scale(0.100000,-0.100000)"
fill="#000000" stroke="none">
<path d="M225 2791 c-82 -21 -154 -79 -196 -161 l-24 -45 0 -1185 0 -1185 24
-45 c32 -61 76 -107 136 -138 l50 -27 1185 0 1185 0 50 27 c60 31 104 77 136
138 l24 45 0 1185 0 1185 -24 45 c-32 61 -76 107 -136 138 l-50 27 -1165 2
c-641 0 -1178 -2 -1195 -6z m1365 -961 l0 -100 -95 0 -95 0 0 100 0 100 95 0
95 0 0 -100z m770 0 l0 -100 95 0 95 0 0 -195 0 -195 -95 0 -95 0 0 -95 0 -95
95 0 95 0 0 -95 0 -95 -95 0 -95 0 0 95 0 95 -195 0 -195 0 0 -95 0 -95 -95 0
-95 0 0 485 0 485 290 0 290 0 0 -100z m-1350 -195 l0 -95 100 0 100 0 0 -290
0 -290 -100 0 -100 0 0 290 0 290 -95 0 -95 0 0 -290 0 -290 -100 0 -100 0 0
290 0 291 -92 -3 -93 -3 -3 -287 -2 -288 -95 0 -95 0 0 385 0 385 385 0 385 0
0 -95z m580 -385 l0 -290 -95 0 -95 0 0 290 0 290 95 0 95 0 0 -290z"/>
<path d="M1970 1540 l0 -190 195 0 195 0 0 190 0 190 -195 0 -195 0 0 -190z"/>
</g>
</svg>
